<?xml version="1.0" encoding="UTF-8" standalone="no"?>
<!-- Created with Inkscape (http://www.inkscape.org/) -->

<svg
   width="63.999996"
   height="63.999996"
   viewBox="0 0 16.933332 16.933333"
   version="1.1"
   id="svg1660"
   inkscape:version="1.1.2 (0a00cf5339, 2022-02-04)"
   sodipodi:docname="logo_icon.svg"
   xmlns:inkscape="http://www.inkscape.org/namespaces/inkscape"
   xmlns:sodipodi="http://sodipodi.sourceforge.net/DTD/sodipodi-0.dtd"
   xmlns="http://www.w3.org/2000/svg"
   xmlns:svg="http://www.w3.org/2000/svg">
  <sodipodi:namedview
     id="namedview1662"
     pagecolor="#ffffff"
     bordercolor="#666666"
     borderopacity="1.0"
     inkscape:pageshadow="2"
     inkscape:pageopacity="0.0"
     inkscape:pagecheckerboard="0"
     inkscape:document-units="mm"
     showgrid="false"
     units="px"
     fit-margin-top="0"
     fit-margin-left="0"
     fit-margin-right="0"
     fit-margin-bottom="0"
     inkscape:zoom="6.3671879"
     inkscape:cx="32.039262"
     inkscape:cy="31.960734"
     inkscape:window-width="1920"
     inkscape:window-height="1024"
     inkscape:window-x="0"
     inkscape:window-y="27"
     inkscape:window-maximized="1"
     inkscape:current-layer="layer1" />
  <defs
     id="defs1657">
    <inkscape:path-effect
       effect="bspline"
       id="path-effect859-3"
       is_visible="true"
       lpeversion="1"
       weight="33.333333"
       steps="2"
       helper_size="0"
       apply_no_weight="true"
       apply_with_weight="true"
       only_selected="false" />
    <inkscape:path-effect
       effect="bspline"
       id="path-effect859"
       is_visible="true"
       lpeversion="1"
       weight="33.333333"
       steps="2"
       helper_size="0"
       apply_no_weight="true"
       apply_with_weight="true"
       only_selected="false" />
  </defs>
  <g
     inkscape:label="Layer 1"
     inkscape:groupmode="layer"
     id="layer1"
     transform="translate(1.6770934e-6,0.02645702)">
    <g
       id="g1627"
       transform="matrix(0.08333333,0,0,0.08333333,-3.439585,-12.726456)">
      <rect
         style="display:inline;fill:#ffa500;stroke:none;stroke-width:0.865;stroke-linecap:round;stroke-linejoin:round;paint-order:stroke markers fill;fill-opacity:1"
         id="rect1206"
         width="203.2"
         height="203.2"
         x="41.275002"
         y="152.39999"
         rx="31.75" />
      <path
         style="fill:#000000;stroke:#000000;stroke-width:1.58749;stroke-linecap:round;stroke-linejoin:round;paint-order:markers stroke fill"
         d="m 192.20536,177.95654 c -11.42548,2.30953 -25.3572,10.56872 -44.7619,10.31506 -19.4047,-0.25366 -44.28163,-9.01946 -59.909688,-3.71269 -15.628055,5.30676 -22.006561,24.68494 -20.337076,51.96308 1.669485,27.27815 11.386469,62.45469 19.418047,81.01782 8.031579,18.56313 14.377637,20.51243 18.559117,17.47765 4.18148,-3.03477 6.19805,-11.05389 3.87543,-26.0274 -2.32262,-14.97351 -8.98438,-36.90016 -5.77718,-52.7707 3.20721,-15.87054 16.28352,-25.68421 28.90261,-29.43911 12.61908,-3.7549 24.78006,-1.45052 31.90607,4.80542 7.126,6.25594 9.21634,16.46264 2.72493,23.42774 -6.49142,6.9651 -21.5635,10.68845 -27.42073,15.04344 -5.85724,4.35498 -2.5,9.34135 11.02914,17.97144 13.52914,8.63009 37.22938,20.90348 46.41404,11.444 9.18466,-9.45948 3.85328,-40.65123 5.54064,-63.69753 1.68737,-23.04631 10.39357,-37.9461 10.2872,-47.2167 -0.10636,-9.27061 -9.02517,-12.91104 -20.45065,-10.60152 z"
         id="path857-6"
         inkscape:export-filename="/home/sal/RiderProjects/Ch1FlyoutPageModel/Ch1FlyoutPageModel/Ch1FlyoutPageModel.Android/Resources/drawable/my_logo.png"
         inkscape:export-xdpi="96"
         inkscape:export-ydpi="96" />
    </g>
  </g>
</svg>
